<?xml version="1.0" encoding="utf-8"?>
<!-- Generator: Adobe Illustrator 23.0.3, SVG Export Plug-In . SVG Version: 6.00 Build 0)  -->
<svg version="1.1" id="Capa_1" xmlns="http://www.w3.org/2000/svg" xmlns:xlink="http://www.w3.org/1999/xlink" x="0px" y="0px"
	 viewBox="0 0 1200 1200" enable-background="new 0 0 1200 1200" xml:space="preserve">
<path fill="#283359" d="M1002.755,218.025c-7.06-8.029-9.48-19.146-6.302-29.353c18.904-60.718,49.179-91.442,70.413-111.334
	c5.307-4.971,3.112-13.896-3.921-15.748c-138.587-36.498-241.067,22.91-272.81,44.922c-6.847,4.748-15.337,6.48-23.479,4.711
	C393.497,30.144,161.595,262.566,111.953,324.59c-5.944,7.426-3.596,18.419,4.832,22.829
	c49.548,25.928,111.677,36.812,140.38,40.697c9.816,1.328,19.775-0.526,28.452-5.306c23.419-12.898,68.119-38.282,124.87-50.539
	c5.306-1.146,9.348,4.853,6.225,9.294c-13.943,19.822-44.662,52.66-60.868,69.595c-5.255,5.491-3.488,14.516,3.46,17.595
	c23.851,10.566,73.266,28.078,108.009,10.592c42.431-21.355,68.61-33.817,96.251-41.404c3.387-0.929,6.364,2.569,4.855,5.74
	c-14.862,31.239-35.694,128.457,82.877,167.514c3.39,1.117,6.518-2.308,5.088-5.577c-9.516-21.756-31.546-81.605-8.752-126.273
	c28.354-55.564,55.993-50.3,55.993-50.3s92.063,10.777,145.91,117.429c47.363,93.811,15.392,239.331-75.961,276.17
	c-78.37,31.603-145.627-35.811-170.005-59.058c-49.942-47.624-109.554-74.535-175.016-16.195c-3.103,2.765-2.044,7.893,1.914,9.163
	c46.501,14.914,126.845,63.364,185.252,180.434c51.872,103.969,5.795,211.833-11.17,245.172c-2.127,4.179,1.71,8.864,6.237,7.641
	c31.103-8.401,113.186-38.046,124.81-119.019c13.409-93.408,24.261-122.306,84.634-155.297
	c73.742-40.295,194.968-116.833,248.524-274.188C1124.252,438.246,1067.995,292.219,1002.755,218.025z M294.423,281.937
	c-9.12,9.611-26.705,9.962-41.141,2.919c-3.049-1.488-4.098-5.352-2.287-8.222c4.92-7.798,16.848-22.081,40.684-28.088
	c3.015-0.76,6.114,0.961,7.022,3.934C301.406,261.343,302.908,272.993,294.423,281.937z M943.414,337.815
	c-82.334-55.33-164.632-30.945-191.2-20.573c-9.385,3.664-19.706,4.704-29.438,2.096c-14.637-3.923-31.714-15.249-31.714-46.748
	c0-54.133,52.298-71.027,52.298-71.027S910.494,173.873,957.632,327.2C960.254,335.728,950.819,342.793,943.414,337.815z"/>
</svg>
